HIERARCHY
ROOT hip
{
	OFFSET 0.000000 0.000000 0.000000 
	CHANNELS 6 Xposition Yposition Zposition Xrotation Zrotation Yrotation
	JOINT abdomen
	{
		OFFSET 0.000000 3.402643 0.000000 
		CHANNELS 3 Xrotation Zrotation Yrotation
		JOINT chest
		{
			OFFSET 0.000000 8.438565 -0.680529 
			CHANNELS 3 Xrotation Zrotation Yrotation
			JOINT neck
			{
				OFFSET 0.000000 10.207942 -0.272212 
				CHANNELS 3 Xrotation Zrotation Yrotation
				JOINT head
				{
					OFFSET 0.000000 3.130431 0.000000 
					CHANNELS 3 Xrotation Zrotation Yrotation
					End Site
					{
						OFFSET 0.000000 3.130435 0.000000 
					}
				}
			}
			JOINT lCollar
			{
				OFFSET 3.470700 6.669187 -0.816635 
				CHANNELS 3 Yrotation Zrotation Xrotation
				JOINT lShldr
				{
					OFFSET 3.198488 0.000000 0.000000 
					CHANNELS 3 Zrotation Yrotation Xrotation
					JOINT lForeArm
					{
						OFFSET 10.139888 0.000000 0.000000 
						CHANNELS 3 Yrotation Zrotation Xrotation
						JOINT lHand
						{
							OFFSET 8.370511 0.000000 0.000000 
							CHANNELS 3 Zrotation Yrotation Xrotation
							End Site
							{
								OFFSET 4.083176 0.000000 0.000000 
							}
						}
					}
				}
			}
			JOINT rCollar
			{
				OFFSET -3.470700 6.669187 -0.816635 
				CHANNELS 3 Yrotation Zrotation Xrotation
				JOINT rShldr
				{
					OFFSET -3.198488 0.000000 0.000000 
					CHANNELS 3 Zrotation Yrotation Xrotation
					JOINT rForeArm
					{
						OFFSET -10.139888 0.000000 0.000000 
						CHANNELS 3 Yrotation Zrotation Xrotation
						JOINT rHand
						{
							OFFSET -8.370511 0.000000 0.000000 
							CHANNELS 3 Zrotation Yrotation Xrotation
							End Site
							{
								OFFSET -4.083176 0.000000 0.000000 
							}
						}
					}
				}
			}
		}
	}
	JOINT lThigh
	{
		OFFSET 5.308129 -1.633274 1.361059 
		CHANNELS 3 Xrotation Zrotation Yrotation
		JOINT lShin
		{
			OFFSET -2.041588 -20.007561 0.000000 
			CHANNELS 3 Xrotation Zrotation Yrotation
			JOINT lFoot
			{
				OFFSET 0.000000 -19.190928 -1.224953 
				CHANNELS 3 Xrotation Yrotation Zrotation
				End Site
				{
					OFFSET 0.000000 -2.449906 4.627600 
				}
			}
		}
	}
	JOINT rThigh
	{
		OFFSET -5.308129 -1.633274 1.361059 
		CHANNELS 3 Xrotation Zrotation Yrotation
		JOINT rShin
		{
			OFFSET 2.041588 -20.007561 0.000000 
			CHANNELS 3 Xrotation Zrotation Yrotation
			JOINT rFoot
			{
				OFFSET 0.000000 -19.190928 -1.224953 
				CHANNELS 3 Xrotation Yrotation Zrotation
				End Site
				{
					OFFSET 0.000000 -2.449906 4.627600 
				}
			}
		}
	}
}
MOTION
Frames: 19
Frame Time: 0.011111
40.360630 48.020210 8.411852 -7.814763 12.938537 -114.509048 68.650337 -4.141431 -0.465117 -30.875553 3.193227 -0.450178 -33.093639 -11.108208 -0.299017 42.704639 8.998376 -4.066339 3.554561 -11.856053 1.830316 -47.079723 -32.765320 55.511066 -84.561394 3.383801 25.997936 8.524705 12.647240 -21.878307 1.017460 16.414410 0.108193 48.153915 32.343830 32.548141 85.948158 -1.610860 28.382431 -8.534408 -12.637552 74.906113 -44.016823 17.524260 14.751596 66.350754 -1.988716 -8.651752 -35.297722 -0.204223 -0.898392 -55.093369 -26.336514 8.111932 39.140442 4.710381 5.984240 -6.886633 0.250803 3.233595 
40.417732 47.964748 8.198463 -8.006849 13.128219 -114.860489 68.653984 -4.308137 -0.321255 -30.688736 3.095726 -0.382626 -33.364056 -10.745261 -0.005014 42.936588 8.469599 -3.509046 3.554561 -11.856053 1.830316 -46.978710 -32.396221 55.336735 -84.629677 3.313131 26.074186 8.524705 12.647240 -21.819712 1.017460 16.414410 0.108193 47.925453 33.206844 33.082336 85.973938 -1.572539 28.483080 -8.534408 -12.637552 74.974464 -44.367996 17.875561 14.710518 66.575104 -1.979040 -8.672359 -35.270409 -0.043955 -0.794903 -55.792236 -26.022608 8.021083 39.733524 4.671145 6.052045 -6.805086 0.759767 3.279132 
40.449055 47.939297 7.992579 -8.179998 13.421049 -115.056206 68.514061 -4.262497 -0.187473 -30.540443 2.923545 -0.344468 -33.645790 -9.979578 0.223695 43.160393 7.101009 -3.152998 3.554561 -11.856053 1.830316 -46.905605 -31.948387 55.182999 -84.676292 3.263019 26.128069 8.524705 12.647240 -21.653702 1.017460 16.414410 0.108193 47.838009 34.142376 33.774406 85.993408 -1.540895 28.553989 -8.534408 -12.637552 75.091652 -44.922016 18.105797 14.456561 66.750534 -1.949209 -8.686088 -35.291542 0.172623 -0.647004 -56.441742 -25.819283 7.802872 40.386471 4.618965 6.120258 -6.775013 1.136540 3.362000 
40.474178 47.910580 7.788653 -8.511605 13.648602 -115.000275 68.376068 -4.082174 -0.310148 -30.549561 2.846056 -0.390909 -33.769760 -9.161395 0.478794 43.370716 5.609300 -2.740242 3.554561 -11.856053 1.830316 -46.928791 -31.361790 54.930027 -84.703133 3.233880 26.150879 8.524705 12.647240 -21.331434 1.017460 16.414410 0.108193 47.381943 34.666607 34.639557 86.040070 -1.461261 28.736162 -8.534408 -12.637552 75.726425 -45.435593 18.024611 14.180419 66.848038 -1.930294 -8.691274 -35.252636 0.432260 -0.488736 -57.137230 -25.927509 7.671471 41.078915 4.560150 6.189067 -6.945267 1.439919 3.395435 
40.497669 47.857395 7.573308 -8.898421 13.736762 -114.819511 68.370552 -3.907235 -0.508327 -30.676674 2.844574 -0.456610 -33.629559 -8.670025 0.833162 43.374332 4.486670 -2.165292 3.554561 -11.856053 1.830316 -47.079575 -30.684614 54.750198 -84.723946 3.213284 26.182405 8.524705 12.647240 -20.833387 1.017460 16.414410 0.108193 47.114841 35.499268 35.603062 86.049370 -1.445494 28.776495 -8.534408 -12.637552 76.097511 -45.663136 17.763266 14.009565 66.907303 -1.929408 -8.675961 -35.301155 0.513950 -0.423815 -57.835011 -26.189529 7.673275 41.858959 4.501735 6.274771 -7.252911 1.745472 3.445047 
40.511372 47.824768 7.353721 -9.088058 13.753478 -114.472931 68.704979 -3.610230 -0.452967 -30.644962 2.560258 -0.494141 -34.080666 -8.238156 1.133699 43.573494 3.588133 -1.706414 3.554561 -11.856053 1.830316 -47.053520 -30.470253 54.544437 -84.745712 3.192467 26.204132 8.524705 12.647240 -20.061899 1.017460 16.414410 0.108193 46.788223 36.359566 36.362099 86.076157 -1.408308 28.906590 -8.534408 -12.637552 76.546738 -45.734856 17.543728 13.722503 66.936028 -1.920542 -8.691772 -35.379429 0.488570 -0.419928 -58.260529 -26.454948 7.486359 42.686954 4.442943 6.383301 -7.641433 2.050303 3.498785 
40.641563 47.745483 7.082582 -8.877266 14.266677 -114.279198 68.851440 -3.444395 0.019953 -30.759720 2.220052 -0.398665 -34.295521 -7.470315 1.250440 43.580036 2.408025 -1.487294 3.554561 -11.856053 1.830316 -46.696213 -30.204172 54.346474 -84.799179 3.135758 26.278919 8.524705 12.647240 -18.987684 1.017460 16.414410 0.108193 46.825180 37.464851 37.097080 86.088867 -1.384280 28.966990 -8.534408 -12.637552 77.083839 -46.697952 18.290380 13.228494 67.102112 -1.910017 -8.697672 -35.037823 0.362496 -0.568121 -58.975609 -25.759253 7.485064 43.615170 4.355285 6.479203 -8.082894 1.814027 3.467356 
40.670601 47.708290 6.825472 -8.958794 14.640664 -114.068123 68.677063 -3.338626 0.192315 -30.581827 1.910104 -0.357071 -34.363075 -6.931577 1.426398 43.497227 1.545198 -1.135574 3.554561 -11.856053 1.830316 -46.375328 -29.800505 54.013260 -84.876724 3.047586 26.366287 8.524705 12.647240 -17.884169 1.017460 16.414410 0.108193 46.851330 38.765301 37.879910 86.090317 -1.385095 28.976706 -8.534408 -12.637552 77.806503 -47.185658 18.621765 13.098663 67.296669 -1.881650 -8.723213 -34.938747 0.040630 -0.798197 -59.670330 -25.583822 7.403162 44.581169 4.277069 6.580908 -8.565733 2.036220 3.520522 
40.717262 47.623127 6.556291 -9.195413 15.241184 -113.836044 68.170860 -3.223387 0.157732 -30.346600 1.781474 -0.356695 -34.383541 -6.696169 1.670726 43.271366 1.192401 -0.612260 3.554561 -11.856053 1.830316 -46.240505 -29.246464 53.408485 -84.962280 2.953200 26.473883 8.524705 12.647240 -16.956430 1.017460 16.414410 0.108193 46.781082 40.219368 38.734970 86.080368 -1.400303 28.926643 -8.534408 -12.637552 78.480331 -48.115276 18.994486 12.999116 67.647881 -1.841908 -8.743452 -34.805550 -0.373127 -1.087524 -60.837532 -25.478123 7.419023 45.655041 4.169715 6.717973 -9.122292 2.166481 3.556071 
40.782516 47.526875 6.288088 -9.504867 15.630420 -113.376549 68.035736 -3.174751 0.065985 -30.179098 1.495124 -0.352665 -34.492634 -6.240836 1.671832 43.009697 0.936618 -0.424487 3.554561 -11.856053 1.830316 -45.830181 -28.834736 53.326038 -85.019867 2.887558 26.558777 8.524705 12.647240 -15.266979 1.017460 16.414410 0.108193 46.943768 41.934292 39.220497 86.051582 -1.447091 28.795931 -8.534408 -12.637552 78.958847 -48.860062 19.047720 12.925789 67.960075 -1.793794 -8.755307 -34.544880 -0.616719 -1.299565 -61.885223 -25.739717 7.330795 46.806374 4.072244 6.844232 -9.675141 2.430668 3.613721 
40.858215 47.419533 6.004549 -9.509597 15.904217 -112.918999 68.170464 -3.128775 0.257509 -30.119631 1.285202 -0.306048 -34.433681 -6.066158 1.699049 42.533451 0.920284 -0.231626 3.554561 -11.856053 1.830316 -45.701805 -28.505192 53.068214 -85.071037 2.828308 26.623201 8.524705 12.647240 -14.622448 1.017460 16.414410 0.108193 46.914940 43.721951 39.622082 86.022285 -1.493470 28.665224 -8.534408 -12.637552 79.613144 -49.553974 19.477894 12.757099 68.310959 -1.745178 -8.778967 -34.087082 -0.831574 -1.519839 -62.670887 -25.662903 7.251980 48.085083 3.955074 6.981609 -10.300406 2.570564 3.660076 
40.939785 47.282818 5.693930 -9.410763 16.179047 -112.691360 68.361160 -3.416606 0.716915 -29.992180 1.152395 -0.152495 -34.457771 -6.001259 1.621958 41.984520 0.854348 -0.366162 3.554561 -11.856053 1.830316 -45.642708 -28.535679 52.851192 -85.103508 2.791542 26.665800 8.524705 12.647240 -14.407606 1.017460 16.414410 0.108193 46.643368 45.463596 39.712391 86.005974 -1.516581 28.604910 -8.534408 -12.637552 80.804543 -50.256603 20.327143 12.754637 68.719955 -1.706405 -8.822360 -33.639629 -1.208566 -1.826799 -63.552368 -25.243637 7.256973 49.509834 3.828083 7.134607 -10.981511 2.820585 3.732281 
41.045822 47.094551 5.392771 -9.671078 16.241796 -112.168343 68.769760 -3.721826 0.752921 -30.001749 1.094479 -0.083737 -34.506325 -5.896669 1.414736 41.520016 0.622618 -0.813473 3.554561 -11.856053 1.830316 -45.483337 -28.548620 52.835621 -85.133720 2.753779 26.708513 8.524705 12.647240 -14.485730 1.017460 16.414410 0.108193 46.355770 47.214657 39.637283 85.974419 -1.572627 28.483063 -8.534408 -12.637552 82.230331 -50.820805 20.508467 12.794078 69.216888 -1.645831 -8.858408 -33.315067 -1.573886 -2.111566 -64.688637 -25.486179 7.369676 51.091484 3.671730 7.284948 -11.715439 3.367160 3.871776 
41.180252 46.861912 5.141210 -10.276275 16.420212 -110.986641 69.035408 -3.484364 0.546324 -30.040306 0.916257 -0.144010 -34.437519 -5.978990 1.202670 40.918480 0.729970 -1.236571 3.554561 -11.856053 1.830316 -45.244389 -28.572880 52.895271 -85.152130 2.731591 26.740053 8.524705 12.647240 -14.866590 1.017460 16.414410 0.108193 46.032974 49.248299 39.301067 85.914986 -1.667361 28.280085 -8.534408 -12.637552 83.724464 -51.798351 19.730749 12.523654 69.763130 -1.559059 -8.870097 -32.966145 -1.805932 -2.290841 -66.266846 -26.747372 7.275015 52.808819 3.488303 7.459234 -12.291809 3.984658 4.025855 
41.286945 46.628952 4.814276 -10.181652 16.741549 -110.330116 69.239067 -3.692918 1.170789 -29.971212 0.601403 0.047541 -34.177769 -6.175093 0.962192 40.198067 1.140136 -1.639656 3.554561 -11.856053 1.830316 -45.006657 -28.645916 52.930691 -85.159439 2.724020 26.740913 8.524705 12.647240 -15.501355 1.017460 16.414410 0.108193 45.691101 51.525963 38.577614 85.805367 -1.842395 27.963053 -8.534408 -12.637552 85.413918 -52.818424 20.310047 12.255844 70.405472 -1.480829 -8.931946 -32.588299 -2.351117 -2.692104 -67.345955 -26.716858 7.145461 54.611824 3.330248 7.638620 -13.127099 4.142526 4.084822 
41.387440 46.359116 4.499741 -10.180431 16.920902 -109.413994 69.675842 -3.734862 1.737175 -30.087837 0.124708 0.214990 -33.884850 -6.510267 0.681384 39.601013 1.780534 -2.149853 3.554561 -11.856053 1.830316 -44.756458 -28.621471 53.019241 -85.190315 2.687039 26.793303 8.524705 12.647240 -16.087294 1.017460 16.414410 0.108193 45.388367 53.824554 37.609322 85.622635 -2.120297 27.548834 -8.534408 -12.637552 87.240097 -53.759731 20.488356 11.885679 71.097527 -1.406808 -8.970340 -32.445782 -2.923188 -3.035643 -68.436577 -27.080036 7.005929 56.521542 3.125004 7.827436 -14.011702 4.332424 4.154556 
41.499355 46.056332 4.181617 -10.254593 17.168209 -108.371826 70.022430 -3.705584 2.289716 -30.107439 -0.335909 0.361263 -33.586914 -6.988376 0.317690 38.930550 2.616184 -2.820287 3.554561 -11.856053 1.830316 -44.448803 -28.695763 53.149723 -85.232750 2.634198 26.856831 8.524705 12.647240 -16.311903 1.017460 16.414410 0.108193 44.939434 56.256176 36.350327 85.343422 -2.499230 27.036459 -8.534408 -12.637552 88.978378 -54.904232 20.463896 11.395978 71.828239 -1.315428 -9.008479 -32.342152 -3.393020 -3.360786 -69.671211 -27.664421 6.787076 58.410999 2.920177 7.980017 -14.702752 4.603918 4.283070 
41.617470 45.743752 3.840653 -10.444703 17.602388 -107.370918 70.073029 -3.801578 2.793791 -29.980839 -0.658059 0.512490 -33.180370 -7.236605 -0.201149 38.143154 3.132118 -3.802431 3.554561 -11.856053 1.830316 -44.333633 -28.883549 53.203915 -85.252113 2.612237 26.888288 8.524705 12.647240 -16.165417 1.017460 16.414410 0.108193 44.265831 58.945911 34.792854 84.874252 -3.058442 26.385614 -8.534408 -12.637552 90.267441 -56.346386 20.458279 10.900069 72.568001 -1.208994 -9.054246 -31.977488 -3.838299 -3.663890 -71.252014 -28.230312 6.637158 60.327644 2.695449 8.146510 -15.279777 4.805025 4.348446 
41.730358 45.471634 3.489249 -10.621814 17.829386 -106.425537 70.510757 -3.998873 3.187349 -30.039753 -0.863123 0.646274 -32.896564 -7.415036 -0.678640 37.491905 3.489000 -4.714827 3.554561 -11.856053 1.830316 -44.398148 -29.067909 53.152225 -85.238930 2.626777 26.867477 8.524705 12.647240 -15.765026 1.017460 16.414410 0.108193 43.280392 61.764511 33.120644 84.173172 -3.763490 25.602301 -8.534408 -12.637552 91.156105 -57.411491 20.458757 10.546348 73.288361 -1.110071 -9.093632 -31.622475 -4.300691 -3.964442 -72.552284 -28.767773 6.576122 62.154762 2.490281 8.300517 -15.963778 4.938765 4.408184 
